<?xml version="1.0" encoding="UTF-8"?>
<svg width="136px" height="41px" viewBox="0 0 136 41" version="1.1" xmlns="http://www.w3.org/2000/svg" xmlns:xlink="http://www.w3.org/1999/xlink">
    <!-- Generator: sketchtool 47.1 (45422) - http://www.bohemiancoding.com/sketch -->
    <title>83E40182-CB84-4320-9846-9DF78C0D7CB8</title>
    <desc>Created with sketchtool.</desc>
    <defs></defs>
    <g id="Design" stroke="none" stroke-width="1" fill="none" fill-rule="evenodd">
        <g id="landing-page-1280" transform="translate(-902.000000, -4240.000000)">
            <g id="elements-/-footer" transform="translate(0.000000, 3990.000000)">
                <g id="badges/app-store" transform="translate(902.000000, 250.000000)">
                    <g id="US_UK_Download_on_the">
                        <g id="Group">
                            <path d="M131.161422,40.2962963 L4.76402963,40.2962963 C2.13771852,40.2962963 0,38.1525333 0,35.528237 L0,4.76100741 C0,2.1357037 2.13771852,0 4.76402963,0 L131.161422,0 C133.786726,0 136,2.1357037 136,4.76100741 L136,35.528237 C136,38.1525333 133.786726,40.2962963 131.161422,40.2962963 L131.161422,40.2962963 Z" id="Shape" fill="#A6A6A6"></path>
                            <path d="M135.02483,35.5292444 C135.02483,37.6609185 133.298133,39.3876148 131.16243,39.3876148 L4.76402963,39.3876148 C2.62933333,39.3876148 0.896592593,37.6609185 0.896592593,35.5292444 L0.896592593,4.76 C0.896592593,2.62933333 2.62933333,0.896592593 4.76402963,0.896592593 L131.161422,0.896592593 C133.298133,0.896592593 135.023822,2.62933333 135.023822,4.76 L135.02483,35.5292444 L135.02483,35.5292444 Z" id="Shape" fill="#000000"></path>
                            <g transform="translate(12.088889, 6.044444)" id="Shape" fill="#FFFFFF">
                                <path d="M18.2622815,13.8861037 C18.2330667,10.6392296 20.9208296,9.05961481 21.0437333,8.98607407 C19.5215407,6.76675556 17.1621926,6.46352593 16.3330963,6.43934815 C14.3515259,6.23081481 12.4293926,7.62506667 11.4199704,7.62506667 C10.3904,7.62506667 8.83597037,6.4594963 7.16065185,6.49374815 C5.0048,6.52699259 2.98797037,7.77517037 1.88183704,9.71342222 C-0.400948148,13.6654815 1.30157037,19.4731852 3.48865185,22.6676741 C4.5826963,24.2321778 5.8610963,25.9790222 7.5344,25.9175704 C9.17143704,25.8500741 9.78293333,24.8738963 11.7584593,24.8738963 C13.7158519,24.8738963 14.2900741,25.9175704 15.9966222,25.8782815 C17.7535407,25.8500741 18.8596741,24.3067259 19.915437,22.7281185 C21.1797333,20.9349333 21.6874667,19.1689481 21.7076148,19.0782815 C21.6663111,19.0641778 18.2955259,17.7777185 18.2622815,13.8861037 Z"></path>
                                <path d="M15.0385778,4.3378963 C15.9190519,3.2368 16.5214815,1.73878519 16.3542519,0.218607407 C15.0798815,0.275022222 13.486163,1.10008889 12.5684148,2.17700741 C11.7564444,3.12598519 11.0311111,4.68142222 11.2184889,6.14417778 C12.6500148,6.25096296 14.1198222,5.42186667 15.0385778,4.3378963 Z"></path>
                            </g>
                            <g transform="translate(42.311111, 18.133333)" id="Shape" fill="#FFFFFF">
                                <path d="M11.7312593,13.6040296 L9.44343704,13.6040296 L8.19022222,9.66607407 L3.83419259,9.66607407 L2.64041481,13.6040296 L0.413037037,13.6040296 L4.72877037,0.197451852 L7.39437037,0.197451852 L11.7312593,13.6040296 Z M7.81244444,8.01392593 L6.67911111,4.51318519 C6.55922963,4.15555556 6.33457778,3.31336296 6.00314074,1.98761481 L5.96284444,1.98761481 C5.83087407,2.55780741 5.61831111,3.4 5.32616296,4.51318519 L4.21297778,8.01392593 L7.81244444,8.01392593 L7.81244444,8.01392593 Z"></path>
                                <path d="M22.8298667,8.65161481 C22.8298667,10.2957037 22.3856,11.5952593 21.4970667,12.5492741 C20.7012148,13.3985185 19.7129481,13.822637 18.5332741,13.822637 C17.2599111,13.822637 16.3451852,13.3652741 15.7880889,12.4505481 L15.7477926,12.4505481 L15.7477926,17.5429926 L13.6,17.5429926 L13.6,7.11934815 C13.6,6.08574815 13.5728,5.02494815 13.5204148,3.93694815 L15.4093037,3.93694815 L15.5291852,5.46921481 L15.5694815,5.46921481 C16.2857481,4.31472593 17.3727407,3.73848889 18.8314667,3.73848889 C19.9718519,3.73848889 20.9238519,4.1888 21.6854519,5.09042963 C22.4490667,5.99306667 22.8298667,7.17979259 22.8298667,8.65161481 Z M20.6417778,8.73019259 C20.6417778,7.78927407 20.4302222,7.01357037 20.0050963,6.40308148 C19.5406815,5.7664 18.9170963,5.44805926 18.1353481,5.44805926 C17.6054519,5.44805926 17.1239111,5.62536296 16.6937481,5.97493333 C16.2625778,6.32752593 15.9805037,6.78791111 15.8485333,7.3581037 C15.7820444,7.62405926 15.7488,7.84165926 15.7488,8.01291852 L15.7488,9.62477037 C15.7488,10.3279407 15.9643852,10.9213037 16.3955556,11.4058667 C16.8267259,11.8904296 17.3868444,12.1322074 18.0759111,12.1322074 C18.8848593,12.1322074 19.5144889,11.8199111 19.9648,11.1973333 C20.4161185,10.5737481 20.6417778,9.7517037 20.6417778,8.73019259 Z"></path>
                                <path d="M33.9486222,8.65161481 C33.9486222,10.2957037 33.5043556,11.5952593 32.6148148,12.5492741 C31.8199704,13.3985185 30.8317037,13.822637 29.6520296,13.822637 C28.3786667,13.822637 27.4639407,13.3652741 26.9078519,12.4505481 L26.8675556,12.4505481 L26.8675556,17.5429926 L24.719763,17.5429926 L24.719763,7.11934815 C24.719763,6.08574815 24.692563,5.02494815 24.6401778,3.93694815 L26.5290667,3.93694815 L26.6489481,5.46921481 L26.6892444,5.46921481 C27.4045037,4.31472593 28.4914963,3.73848889 29.9512296,3.73848889 C31.0906074,3.73848889 32.0426074,4.1888 32.8062222,5.09042963 C33.5668148,5.99306667 33.9486222,7.17979259 33.9486222,8.65161481 Z M31.7605333,8.73019259 C31.7605333,7.78927407 31.5479704,7.01357037 31.1228444,6.40308148 C30.6584296,5.7664 30.0368593,5.44805926 29.2541037,5.44805926 C28.7232,5.44805926 28.2426667,5.62536296 27.8114963,5.97493333 C27.3803259,6.32752593 27.0992593,6.78791111 26.9672889,7.3581037 C26.9018074,7.62405926 26.8675556,7.84165926 26.8675556,8.01291852 L26.8675556,9.62477037 C26.8675556,10.3279407 27.0831407,10.9213037 27.5122963,11.4058667 C27.9434667,11.8894222 28.5035852,12.1322074 29.1946667,12.1322074 C30.0036148,12.1322074 30.6332444,11.8199111 31.0835556,11.1973333 C31.5348741,10.5737481 31.7605333,9.7517037 31.7605333,8.73019259 Z"></path>
                                <path d="M46.3800296,9.84438519 C46.3800296,10.9847704 45.9841185,11.9125926 45.1892741,12.6288593 C44.3158519,13.4116148 43.0999111,13.8024889 41.5374222,13.8024889 C40.0948148,13.8024889 38.9383111,13.5244444 38.0628741,12.9673481 L38.5605333,11.1771852 C39.5034667,11.7473778 40.5380741,12.0334815 41.665363,12.0334815 C42.4743111,12.0334815 43.1039407,11.8501333 43.5562667,11.4854519 C44.0065778,11.1207704 44.2312296,10.6311704 44.2312296,10.0206815 C44.2312296,9.47668148 44.0458667,9.01831111 43.6741333,8.64657778 C43.3044148,8.27484444 42.6868741,7.9293037 41.8245333,7.60995556 C39.4772741,6.73451852 38.3046519,5.45208889 38.3046519,3.76568889 C38.3046519,2.66358519 38.7156741,1.75994074 39.5387259,1.05677037 C40.3587556,0.352592593 41.4528,0.00100740741 42.8208593,0.00100740741 C44.0408296,0.00100740741 45.0542815,0.21357037 45.8632296,0.637688889 L45.3262815,2.38856296 C44.5707259,1.97754074 43.7164444,1.77202963 42.7604148,1.77202963 C42.0048593,1.77202963 41.4145185,1.9584 40.9914074,2.32912593 C40.6337778,2.66056296 40.4544593,3.06453333 40.4544593,3.54305185 C40.4544593,4.07294815 40.658963,4.51117037 41.0699852,4.8557037 C41.4276148,5.17404444 42.0773926,5.51857778 43.0203259,5.89031111 C44.1738074,6.35472593 45.021037,6.89771852 45.5660444,7.5202963 C46.109037,8.14085926 46.3800296,8.91757037 46.3800296,9.84438519 Z"></path>
                                <path d="M53.4812444,5.5488 L51.113837,5.5488 L51.113837,10.2423111 C51.113837,11.4360889 51.5309037,12.0324741 52.3670519,12.0324741 C52.7508741,12.0324741 53.0692148,11.9992296 53.3210667,11.9327407 L53.3805037,13.5637333 C52.9573926,13.7218963 52.4002963,13.8014815 51.7102222,13.8014815 C50.8619852,13.8014815 50.1991111,13.5425778 49.7205926,13.0257778 C49.2440889,12.5079704 49.0043259,11.6395852 49.0043259,10.4196148 L49.0043259,5.54678519 L47.5939556,5.54678519 L47.5939556,3.93493333 L49.0043259,3.93493333 L49.0043259,2.16491852 L51.113837,1.52823704 L51.113837,3.93493333 L53.4812444,3.93493333 L53.4812444,5.5488 Z"></path>
                                <path d="M64.1627852,8.6909037 C64.1627852,10.1768296 63.7376593,11.3968 62.8894222,12.3508148 C61.9998815,13.333037 60.8192,13.822637 59.3473778,13.822637 C57.9289481,13.822637 56.7996444,13.3521778 55.9574519,12.4112593 C55.1152593,11.4703407 54.694163,10.2826074 54.694163,8.85108148 C54.694163,7.35306667 55.1273481,6.12604444 55.9967407,5.17202963 C56.8641185,4.21700741 58.0347259,3.7394963 59.5065481,3.7394963 C60.9249778,3.7394963 62.0663704,4.20995556 62.9277037,5.15188148 C63.751763,6.0656 64.1627852,7.24527407 64.1627852,8.6909037 Z M61.9344,8.76041481 C61.9344,7.86885926 61.744,7.10423704 61.358163,6.46654815 C60.9078519,5.69487407 60.2641185,5.31004444 59.4299852,5.31004444 C58.566637,5.31004444 57.9108148,5.69588148 57.4605037,6.46654815 C57.0746667,7.10524444 56.8842667,7.88195556 56.8842667,8.80071111 C56.8842667,9.69226667 57.0746667,10.4568889 57.4605037,11.0935704 C57.9249185,11.8652444 58.5736889,12.2500741 59.4108444,12.2500741 C60.2308741,12.2500741 60.8746074,11.8571852 61.3390222,11.0734222 C61.7349333,10.4236444 61.9344,9.65096296 61.9344,8.76041481 Z"></path>
                                <path d="M71.1441185,5.82583704 C70.9315556,5.78654815 70.7048889,5.7664 70.4671407,5.7664 C69.7115852,5.7664 69.1272889,6.0514963 68.7162667,6.6226963 C68.358637,7.1264 68.1793185,7.76308148 68.1793185,8.53173333 L68.1793185,13.6040296 L66.0325333,13.6040296 L66.0526815,6.98133333 C66.0526815,5.86714074 66.0254815,4.85268148 65.9720889,3.93795556 L67.8428444,3.93795556 L67.9214222,5.78755556 L67.9808593,5.78755556 C68.2075259,5.15188148 68.5651556,4.64011852 69.0547556,4.2562963 C69.5332741,3.91075556 70.0500741,3.73848889 70.6071704,3.73848889 C70.8056296,3.73848889 70.9849481,3.75259259 71.1441185,3.77777778 L71.1441185,5.82583704 Z"></path>
                                <path d="M80.7497481,8.31312593 C80.7497481,8.69795556 80.724563,9.02234074 80.6711704,9.28728889 L74.2277926,9.28728889 C74.2529778,10.2423111 74.5642667,10.9726815 75.1626667,11.4763852 C75.7056593,11.9266963 76.4078222,12.1523556 77.270163,12.1523556 C78.2241778,12.1523556 79.0945778,12.000237 79.8773333,11.6949926 L80.2138074,13.1859556 C79.2990815,13.5848889 78.2191407,13.7833481 76.9729778,13.7833481 C75.4739556,13.7833481 74.2973037,13.3421037 73.4410074,12.4606222 C72.5867259,11.5791407 72.1585778,10.395437 72.1585778,8.91051852 C72.1585778,7.4528 72.5565037,6.23887407 73.353363,5.27075556 C74.1874963,4.23715556 75.3147852,3.72035556 76.7332148,3.72035556 C78.1264593,3.72035556 79.1812148,4.23715556 79.8974815,5.27075556 C80.4646519,6.09179259 80.7497481,7.10725926 80.7497481,8.31312593 Z M78.7016889,7.75602963 C78.7157926,7.11934815 78.575763,6.5693037 78.2846222,6.10488889 C77.9128889,5.5074963 77.3416889,5.2093037 76.573037,5.2093037 C75.8708741,5.2093037 75.2996741,5.50044444 74.8634667,6.08474074 C74.505837,6.54915556 74.2932741,7.10625185 74.2277926,7.75502222 L78.7016889,7.75502222 L78.7016889,7.75602963 Z"></path>
                            </g>
                            <g transform="translate(43.318519, 6.044444)" id="Shape" fill="#FFFFFF">
                                <path d="M6.09481481,4.0386963 C6.09481481,5.22441481 5.7392,6.11697778 5.02897778,6.71638519 C4.37114074,7.26945185 3.43626667,7.54648889 2.22536296,7.54648889 C1.62494815,7.54648889 1.11117037,7.5202963 0.681007407,7.46791111 L0.681007407,0.989274074 C1.24213333,0.898607407 1.84657778,0.852266667 2.49937778,0.852266667 C3.65285926,0.852266667 4.52225185,1.10311111 5.10856296,1.6048 C5.76539259,2.17197037 6.09481481,2.98293333 6.09481481,4.0386963 Z M4.98162963,4.06791111 C4.98162963,3.29925926 4.77813333,2.70992593 4.37114074,2.2989037 C3.96414815,1.88888889 3.36977778,1.68337778 2.58702222,1.68337778 C2.25457778,1.68337778 1.9714963,1.70554074 1.73677037,1.75188148 L1.73677037,6.6770963 C1.86672593,6.69724444 2.10447407,6.70631111 2.45001481,6.70631111 C3.25795556,6.70631111 3.88154074,6.48165926 4.32077037,6.03235556 C4.76,5.58305185 4.98162963,4.92823704 4.98162963,4.06791111 Z"></path>
                                <path d="M11.9972148,5.07431111 C11.9972148,5.80468148 11.7886815,6.40308148 11.3716148,6.87253333 C10.9344,7.35508148 10.3551407,7.59585185 9.63182222,7.59585185 C8.9346963,7.59585185 8.37961481,7.36515556 7.96557037,6.90174815 C7.55253333,6.43934815 7.34601481,5.85605926 7.34601481,5.15288889 C7.34601481,4.41748148 7.55857778,3.81404444 7.98571852,3.3456 C8.41285926,2.87715556 8.98708148,2.64242963 9.7104,2.64242963 C10.4075259,2.64242963 10.9676444,2.87312593 11.391763,3.33552593 C11.7947259,3.78482963 11.9972148,4.3650963 11.9972148,5.07431111 Z M10.902163,5.10856296 C10.902163,4.67034074 10.8074667,4.29457778 10.6190815,3.98127407 C10.3974519,3.60248889 10.0821333,3.4130963 9.67211852,3.4130963 C9.248,3.4130963 8.92562963,3.60248889 8.704,3.98127407 C8.51460741,4.29457778 8.42091852,4.67638519 8.42091852,5.1277037 C8.42091852,5.56592593 8.51561481,5.94168889 8.704,6.25499259 C8.93268148,6.63377778 9.25102222,6.82317037 9.66204444,6.82317037 C10.0650074,6.82317037 10.3813333,6.63075556 10.6090074,6.24491852 C10.8044444,5.92557037 10.902163,5.54678519 10.902163,5.10856296 Z"></path>
                                <path d="M19.9114074,2.73914074 L18.4254815,7.48805926 L17.4583704,7.48805926 L16.8428444,5.4258963 C16.6866963,4.91111111 16.559763,4.39934815 16.461037,3.89161481 L16.4418963,3.89161481 C16.3502222,4.41345185 16.2232889,4.92420741 16.0600889,5.4258963 L15.4062815,7.48805926 L14.4280889,7.48805926 L13.0308148,2.73914074 L14.1157926,2.73914074 L14.6527407,4.99674074 C14.7826963,5.53066667 14.8894815,6.03940741 14.9751111,6.52094815 L14.9942519,6.52094815 C15.0728296,6.12402963 15.2027852,5.61831111 15.3861333,5.00681481 L16.0600889,2.74014815 L16.9204148,2.74014815 L17.566163,4.95845926 C17.7223111,5.49943704 17.8492444,6.02026667 17.946963,6.52195556 L17.9761778,6.52195556 C18.0477037,6.03336296 18.1554963,5.51253333 18.2985481,4.95845926 L18.8747852,2.74014815 L19.9114074,2.74014815 L19.9114074,2.73914074 Z"></path>
                                <path d="M25.3846519,7.48805926 L24.3288889,7.48805926 L24.3288889,4.76805926 C24.3288889,3.9298963 24.0105481,3.51081481 23.3718519,3.51081481 C23.0585481,3.51081481 22.8056889,3.62565926 22.6092444,3.85635556 C22.4148148,4.08705185 22.3160889,4.35905185 22.3160889,4.67034074 L22.3160889,7.48705185 L21.2603259,7.48705185 L21.2603259,4.09611852 C21.2603259,3.67905185 21.2472296,3.22672593 21.2220444,2.73712593 L22.1498667,2.73712593 L22.1992296,3.47958519 L22.2284444,3.47958519 C22.3513481,3.24888889 22.5346963,3.05848889 22.7754667,2.90637037 C23.0615704,2.72906667 23.3819259,2.63940741 23.7325037,2.63940741 C24.175763,2.63940741 24.5444741,2.78245926 24.8376296,3.06957037 C25.2023111,3.42115556 25.3846519,3.94601481 25.3846519,4.64314074 L25.3846519,7.48805926 L25.3846519,7.48805926 Z"></path>
                                <polygon points="28.2960593 7.48805926 27.2413037 7.48805926 27.2413037 0.560118519 28.2960593 0.560118519"></polygon>
                                <path d="M34.511763,5.07431111 C34.511763,5.80468148 34.3032296,6.40308148 33.886163,6.87253333 C33.4489481,7.35508148 32.8686815,7.59585185 32.1463704,7.59585185 C31.448237,7.59585185 30.8931556,7.36515556 30.4801185,6.90174815 C30.0670815,6.43934815 29.860563,5.85605926 29.860563,5.15288889 C29.860563,4.41748148 30.0731259,3.81404444 30.5002667,3.3456 C30.9274074,2.87715556 31.5016296,2.64242963 32.2239407,2.64242963 C32.9220741,2.64242963 33.4811852,2.87312593 33.9063111,3.33552593 C34.3092741,3.78482963 34.511763,4.3650963 34.511763,5.07431111 Z M33.4157037,5.10856296 C33.4157037,4.67034074 33.3210074,4.29457778 33.1326222,3.98127407 C32.912,3.60248889 32.5956741,3.4130963 32.1866667,3.4130963 C31.7615407,3.4130963 31.4391704,3.60248889 31.2185481,3.98127407 C31.0291556,4.29457778 30.9354667,4.67638519 30.9354667,5.1277037 C30.9354667,5.56592593 31.030163,5.94168889 31.2185481,6.25499259 C31.4472296,6.63377778 31.7655704,6.82317037 32.1765926,6.82317037 C32.5795556,6.82317037 32.8948741,6.63075556 33.1225481,6.24491852 C33.3189926,5.92557037 33.4157037,5.54678519 33.4157037,5.10856296 Z"></path>
                                <path d="M39.6213333,7.48805926 L38.673363,7.48805926 L38.5947852,6.94103704 L38.5655704,6.94103704 C38.2411852,7.37724444 37.7787852,7.59585185 37.1783704,7.59585185 C36.7300741,7.59585185 36.3674074,7.45179259 36.0944,7.16568889 C35.8465778,6.90577778 35.7226667,6.5824 35.7226667,6.19857778 C35.7226667,5.61831111 35.9644444,5.17605926 36.4510222,4.86980741 C36.9365926,4.56355556 37.6196148,4.41345185 38.4990815,4.4205037 L38.4990815,4.33185185 C38.4990815,3.70625185 38.1706667,3.39395556 37.5128296,3.39395556 C37.0443852,3.39395556 36.6313481,3.51182222 36.2747259,3.74554074 L36.0601481,3.05244444 C36.5013926,2.77943704 37.0464,2.64242963 37.6891259,2.64242963 C38.9302519,2.64242963 39.5528296,3.29724444 39.5528296,4.60687407 L39.5528296,6.35573333 C39.5528296,6.83022222 39.576,7.208 39.6213333,7.48805926 Z M38.5252741,5.85605926 L38.5252741,5.12367407 C37.3607111,5.10352593 36.7784296,5.42287407 36.7784296,6.08071111 C36.7784296,6.32853333 36.8449185,6.5138963 36.9809185,6.63780741 C37.1169185,6.76171852 37.2901926,6.82317037 37.4967111,6.82317037 C37.7284148,6.82317037 37.9450074,6.74962963 38.1424593,6.60355556 C38.3409185,6.45647407 38.4628148,6.2701037 38.5081481,6.04142222 C38.5192296,5.99004444 38.5252741,5.92758519 38.5252741,5.85605926 Z"></path>
                                <path d="M45.6204444,7.48805926 L44.6835556,7.48805926 L44.6341926,6.72545185 L44.6049778,6.72545185 C44.3057778,7.30571852 43.7960296,7.59585185 43.079763,7.59585185 C42.5075556,7.59585185 42.0310519,7.3712 41.6532741,6.9218963 C41.2754963,6.47259259 41.0871111,5.8893037 41.0871111,5.17303704 C41.0871111,4.40438519 41.2916148,3.78180741 41.702637,3.30631111 C42.100563,2.86305185 42.5881481,2.64142222 43.1684148,2.64142222 C43.8061037,2.64142222 44.2523852,2.856 44.5062519,3.28616296 L44.5264,3.28616296 L44.5264,0.560118519 L45.5831704,0.560118519 L45.5831704,6.20865185 C45.5831704,6.67105185 45.5952593,7.09718519 45.6204444,7.48805926 Z M44.5264,5.48533333 L44.5264,4.69351111 C44.5264,4.5565037 44.5163259,4.44568889 44.4971852,4.36106667 C44.4377481,4.1072 44.3098074,3.89362963 44.1153778,3.72136296 C43.9189333,3.5490963 43.6821926,3.46245926 43.4091852,3.46245926 C43.0152889,3.46245926 42.7070222,3.61860741 42.4803556,3.93191111 C42.2557037,4.24521481 42.1418667,4.64515556 42.1418667,5.13374815 C42.1418667,5.6032 42.2496593,5.984 42.4662519,6.27715556 C42.6949333,6.58945185 43.0032,6.7456 43.389037,6.7456 C43.7355852,6.7456 44.0126222,6.61564444 44.2231704,6.35472593 C44.4266667,6.11395556 44.5264,5.82382222 44.5264,5.48533333 Z"></path>
                                <path d="M54.649837,5.07431111 C54.649837,5.80468148 54.4413037,6.40308148 54.024237,6.87253333 C53.5870222,7.35508148 53.0087704,7.59585185 52.2844444,7.59585185 C51.5883259,7.59585185 51.0332444,7.36515556 50.6181926,6.90174815 C50.2051556,6.43934815 49.998637,5.85605926 49.998637,5.15288889 C49.998637,4.41748148 50.2112,3.81404444 50.6383407,3.3456 C51.0654815,2.87715556 51.6397037,2.64242963 52.3640296,2.64242963 C53.0601481,2.64242963 53.6212741,2.87312593 54.0443852,3.33552593 C54.4473481,3.78482963 54.649837,4.3650963 54.649837,5.07431111 Z M53.5557926,5.10856296 C53.5557926,4.67034074 53.4610963,4.29457778 53.2727111,3.98127407 C53.0500741,3.60248889 52.735763,3.4130963 52.3247407,3.4130963 C51.9016296,3.4130963 51.5792593,3.60248889 51.3566222,3.98127407 C51.1672296,4.29457778 51.0735407,4.67638519 51.0735407,5.1277037 C51.0735407,5.56592593 51.168237,5.94168889 51.3566222,6.25499259 C51.5853037,6.63377778 51.9036444,6.82317037 52.3146667,6.82317037 C52.7176296,6.82317037 53.034963,6.63075556 53.262637,6.24491852 C53.4570667,5.92557037 53.5557926,5.54678519 53.5557926,5.10856296 Z"></path>
                                <path d="M60.3265778,7.48805926 L59.2718222,7.48805926 L59.2718222,4.76805926 C59.2718222,3.9298963 58.9534815,3.51081481 58.3137778,3.51081481 C58.0004741,3.51081481 57.7476148,3.62565926 57.5521778,3.85635556 C57.3567407,4.08705185 57.2590222,4.35905185 57.2590222,4.67034074 L57.2590222,7.48705185 L56.2022519,7.48705185 L56.2022519,4.09611852 C56.2022519,3.67905185 56.190163,3.22672593 56.1649778,2.73712593 L57.0917926,2.73712593 L57.1411556,3.47958519 L57.1703704,3.47958519 C57.2942815,3.24888889 57.4776296,3.05848889 57.7173926,2.90637037 C58.0045037,2.72906667 58.3238519,2.63940741 58.675437,2.63940741 C59.1176889,2.63940741 59.4864,2.78245926 59.7795556,3.06957037 C60.1452444,3.42115556 60.3265778,3.94601481 60.3265778,4.64314074 L60.3265778,7.48805926 L60.3265778,7.48805926 Z"></path>
                                <path d="M67.4318222,3.52995556 L66.2692741,3.52995556 L66.2692741,5.83691852 C66.2692741,6.42322963 66.4757926,6.71638519 66.8848,6.71638519 C67.0741926,6.71638519 67.2313481,6.70026667 67.3552593,6.66702222 L67.3824593,7.46791111 C67.1739259,7.54648889 66.8999111,7.58577778 66.5624296,7.58577778 C66.145363,7.58577778 65.8209778,7.45884444 65.5862519,7.20497778 C65.3505185,6.95111111 65.2336593,6.52397037 65.2336593,5.92456296 L65.2336593,3.52995556 L64.5395556,3.52995556 L64.5395556,2.73914074 L65.2336593,2.73914074 L65.2336593,1.86874074 L66.2682667,1.55644444 L66.2682667,2.73813333 L67.4308148,2.73813333 L67.4308148,3.52995556 L67.4318222,3.52995556 Z"></path>
                                <path d="M73.0209185,7.48805926 L71.9641481,7.48805926 L71.9641481,4.78820741 C71.9641481,3.93694815 71.6458074,3.51081481 71.0081185,3.51081481 C70.5185185,3.51081481 70.1840593,3.75762963 70.0007111,4.25125926 C69.9694815,4.35502222 69.9513481,4.48195556 69.9513481,4.63105185 L69.9513481,7.48705185 L68.8965926,7.48705185 L68.8965926,0.560118519 L69.9513481,0.560118519 L69.9513481,3.42216296 L69.9714963,3.42216296 C70.3039407,2.90133333 70.7804444,2.64142222 71.3979852,2.64142222 C71.8352,2.64142222 72.1968593,2.78447407 72.4839704,3.07158519 C72.8416,3.42921481 73.0209185,3.96112593 73.0209185,4.6642963 L73.0209185,7.48805926 L73.0209185,7.48805926 Z"></path>
                                <path d="M78.7863111,4.88894815 C78.7863111,5.07834074 78.7722074,5.23751111 78.7470222,5.36746667 L75.5807407,5.36746667 C75.5948444,5.83691852 75.7459556,6.19454815 76.0391111,6.44237037 C76.3070815,6.664 76.6526222,6.77481481 77.0757333,6.77481481 C77.5441778,6.77481481 77.9713185,6.70026667 78.3561481,6.55016296 L78.521363,7.28355556 C78.0710519,7.47899259 77.5411556,7.57671111 76.9276444,7.57671111 C76.192237,7.57671111 75.6129778,7.36011852 75.1938963,6.92693333 C74.7728,6.49374815 74.5642667,5.91247407 74.5642667,5.18311111 C74.5642667,4.46684444 74.7586963,3.87045926 75.1505778,3.39496296 C75.5595852,2.88722963 76.1126519,2.63336296 76.8107852,2.63336296 C77.4938074,2.63336296 78.0126222,2.88722963 78.3632,3.39496296 C78.6462815,3.79792593 78.7863111,4.29659259 78.7863111,4.88894815 Z M77.7789037,4.61594074 C77.786963,4.30263704 77.7174519,4.03265185 77.5744,3.80497778 C77.3910519,3.51182222 77.112,3.36474074 76.7342222,3.36474074 C76.3896889,3.36474074 76.1086222,3.50779259 75.8940444,3.7949037 C75.7187556,4.02358519 75.6149926,4.29659259 75.5807407,4.61594074 L77.7789037,4.61594074 Z"></path>
                            </g>
                        </g>
                    </g>
                </g>
            </g>
        </g>
    </g>
</svg>