<?xml version="1.0" encoding="UTF-8"?>
<svg width="134px" height="26px" viewBox="0 0 134 26" version="1.1" xmlns="http://www.w3.org/2000/svg" xmlns:xlink="http://www.w3.org/1999/xlink" style="background: #173045;">
    <!-- Generator: sketchtool 47.1 (45422) - http://www.bohemiancoding.com/sketch -->
    <title>38A7334B-7EEB-45ED-872E-FE3DDF89CFB8</title>
    <desc>Created with sketchtool.</desc>
    <defs></defs>
    <g id="Symbols" stroke="none" stroke-width="1" fill="none" fill-rule="evenodd">
        <g id="logo/bellotero-logo-white" fill="#FFFFFF">
            <g id="2017_bellotero_logo" fill-rule="nonzero">
                <g id="logo">
                    <g id="Group">
                        <path d="M9.6019999,0.486935241 C9.81247881,0.431068803 10.0204344,0.381460255 10.225564,0.337503928 C11.501769,0.0731471773 12.6412377,0.0275684271 13.5710442,0.0731471773 C14.0359475,0.100494427 14.455272,0.136957428 14.8107862,0.200767678 C14.9931012,0.228114928 15.1571847,0.255462178 15.3030367,0.282809428 C15.4488887,0.310156678 15.585625,0.346619678 15.7132455,0.364851178 C15.8317502,0.392198428 15.9411392,0.419545678 16.0322967,0.446892929 C16.1234542,0.474240179 16.205496,0.492471679 16.2601905,0.510703179 C16.387811,0.547166179 16.4516212,0.565397679 16.4516212,0.565397679 C16.4516212,0.565397679 16.387811,0.547166179 16.2601905,0.519818929 C16.1963802,0.501587429 16.1234542,0.483355929 16.023181,0.465124429 C15.9320235,0.446892929 15.8226345,0.419545678 15.7041297,0.401314178 C15.220995,0.301040928 14.491735,0.191651928 13.5619285,0.164304678 C12.69171,0.138710017 11.6538108,0.200948115 10.4930694,0.448168993 C11.1527162,0.485078165 12.0141567,0.660532807 12.8964787,1.20350018 C13.069678,1.32200493 13.2337615,1.46785693 13.4160765,1.57724593 C13.8809797,1.86894993 14.3732302,2.10595943 14.892828,2.29739018 C15.622088,2.56174694 16.3969267,2.71671469 17.1717655,2.76229344 C17.4361222,2.77140919 17.7095947,2.77140919 17.9739515,2.76229344 C18.174498,2.75317769 18.3659288,2.74406194 18.5664753,2.71671469 C18.7032115,2.69848319 18.830832,2.65290444 18.9675683,2.63467294 C19.304851,2.60732569 19.5509763,2.77140919 19.6603653,3.08134469 C19.6603653,3.08134469 19.7697543,3.38216444 19.4598188,3.69209994 L19.2957353,3.78325744 C19.2957353,3.78325744 17.773405,4.36666544 15.9411392,6.08042645 C15.9411392,6.08042645 14.819902,7.22901095 14.272957,8.06765995 C14.272957,8.06765995 13.2337615,9.53529571 12.7232795,11.203478 C12.7232795,11.203478 10.1728942,18.9631609 16.7918136,24.9608416 C17.3801034,24.7801309 17.9496795,24.560718 18.4935493,24.3119265 C19.3504298,23.9108335 20.1435,23.418583 20.8545285,22.8625223 C21.565557,22.3155773 22.2036595,21.6957063 22.7506045,21.048488 C22.8873408,20.8935202 23.0149613,20.720321 23.1516975,20.5562375 L23.2519708,20.428617 L23.2975495,20.3648067 L23.3431283,20.3009965 C23.3978228,20.2189547 23.461633,20.1277972 23.5163275,20.0457555 C23.7624528,19.7175885 23.9538835,19.3620742 24.1635458,19.0247915 C24.5464073,18.3319945 24.847227,17.6391975 25.0933523,16.964632 C25.1480468,16.7914327 25.2027413,16.6273492 25.2574358,16.45415 C25.284783,16.3721082 25.3121303,16.2900665 25.3394775,16.2080247 C25.357709,16.125983 25.3850563,16.0439412 25.4032878,15.9618995 C25.4488665,15.797816 25.4853295,15.6337325 25.5217925,15.469649 C25.5491398,15.3055655 25.5856028,15.141482 25.61295,14.9865142 C25.8408438,13.719425 25.8408438,12.5799562 25.758802,11.6592655 C25.685876,10.7385747 25.5126768,10.0184305 25.4032878,9.53529571 C25.2574358,9.03392946 25.1845098,8.77868846 25.1845098,8.77868846 C25.1845098,8.77868846 25.2665515,9.03392946 25.4215193,9.50794846 C25.4488665,9.62645321 25.4853295,9.76318946 25.5217925,9.90904146 C25.5582555,10.0548935 25.6038343,10.218977 25.6402973,10.401292 C25.6767603,10.5744912 25.7132233,10.765922 25.7496863,10.9755842 C25.7770335,11.1852465 25.8043808,11.4040245 25.8408438,11.6319182 C25.941117,12.5617247 25.9684643,13.7011935 25.7679178,14.9865142 C25.7405705,15.1505977 25.7132233,15.3146812 25.685876,15.4787647 C25.649413,15.6428482 25.61295,15.8069317 25.576487,15.980131 C25.5582555,16.0621727 25.540024,16.1533302 25.5217925,16.235372 C25.4944453,16.3174137 25.4762138,16.4085712 25.4488665,16.490613 C25.394172,16.6638122 25.3485933,16.8370115 25.2938988,17.0102107 C25.066005,17.7030077 24.7560695,18.4140362 24.3823238,19.1250647 C24.1817773,19.4714632 23.9812308,19.8360932 23.7351055,20.173376 C23.680411,20.2645335 23.6166008,20.3465752 23.5619063,20.4377327 L23.5163275,20.5106587 L23.4707488,20.574469 L23.3795913,20.7020895 C23.2519708,20.866173 23.1243503,21.0393722 22.987614,21.2034557 C22.4315533,21.8780213 21.7934508,22.5161238 21.0733065,23.090416 C20.3531623,23.6647083 19.5418605,24.184306 18.6758643,24.6127463 C17.8007522,25.0411865 16.8527142,25.3602378 15.8682132,25.5881315 C14.8837122,25.8160253 13.8536325,25.9162985 12.814437,25.9071828 C11.7752415,25.898067 10.7178145,25.7430993 9.69685047,25.4787425 C8.66677072,25.2143858 7.67315396,24.7950613 6.72511596,24.2754635 C6.48810646,24.147843 6.26021271,24.001991 6.03231896,23.8652548 C5.91381421,23.7923288 5.80442521,23.710287 5.69503621,23.637361 C5.58564721,23.5553193 5.47625821,23.491509 5.35775346,23.4003515 L5.03870221,23.1542263 L4.88373445,23.0357215 L4.7287667,22.908101 L4.4188312,22.6437443 C4.31855795,22.5525868 4.2182847,22.4614293 4.11801145,22.3702718 C3.71691845,22.0056418 3.3614042,21.6045488 3.00588995,21.19434 C2.6686072,20.7750155 2.3404402,20.3465752 2.05785194,19.881672 C1.76614794,19.4258845 1.51090694,18.9518655 1.28301319,18.4687307 L1.11892969,18.1041007 C1.09158244,18.0402905 1.06423519,17.985596 1.03688794,17.9217857 L0.963961941,17.7394707 L0.818109941,17.365725 L0.69048944,16.9919792 C0.353206689,15.980131 0.161775938,14.9409355 0.0797341881,13.90174 C-0.00230756218,12.8625445 0.052386938,11.8324647 0.216470439,10.8297322 C0.53552169,8.83338296 1.34682344,7.0011172 2.4133662,5.49701845 C2.9420797,4.74952694 3.5437192,4.06584569 4.1818217,3.47332194 C4.8199242,2.88079819 5.49448971,2.37943194 6.17817096,1.96010743 C6.86185221,1.54078293 7.55464921,1.19438443 8.23833047,0.93002768 C8.48823866,0.833396512 8.73571086,0.746509317 8.98030185,0.668475657 C9.07524486,0.633443116 9.17127733,0.599074126 9.26841022,0.565397679 C9.37659676,0.5293355 9.48478329,0.504686366 9.6019999,0.486935241 Z M3.4160987,21.0458544 C3.58838816,21.2437412 3.76556203,21.4407103 3.94879638,21.6320574 C3.17437456,13.1206062 9.81467712,8.66964816 10.3225413,8.34237709 C9.87106878,8.56255756 2.47928101,12.3075244 3.4160987,21.0393722 C3.4160987,21.0393722 3.4160987,21.0416038 3.4160987,21.0458545 Z M11.3285697,5.9436902 C11.684084,5.3785137 11.5108847,4.63102219 10.9457082,4.27550794 C10.3805317,3.91999369 9.63304022,4.09319294 9.27752597,4.65836944 C8.92201172,5.22354594 9.09521097,5.97103745 9.66038747,6.3265517 C10.225564,6.68206595 10.9730555,6.5088667 11.3285697,5.9436902 Z" id="Combined-Shape"></path>
                    </g>
                </g>
            </g>
            <path d="M41.314,19 L41.314,6.4 L45.616,6.4 C49.072,6.4 49.666,8.668 49.666,9.982 C49.666,11.71 48.532,12.43 47.668,12.628 C48.406,12.808 49.774,13.492 49.774,15.346 C49.774,16.66 49.18,19 45.724,19 L41.314,19 Z M45.742,13.546 L43.384,13.546 L43.384,17.146 L45.724,17.146 C47.416,17.146 47.704,15.994 47.704,15.346 C47.704,14.716 47.326,13.546 45.742,13.546 Z M43.384,11.692 L45.616,11.692 C47.308,11.692 47.596,10.594 47.596,9.982 C47.596,9.352 47.308,8.254 45.616,8.254 L43.384,8.254 L43.384,11.692 Z M59.422,15.4 L53.482,15.4 C53.5,16.606 54.094,17.578 55.678,17.578 C56.794,17.578 57.208,17.074 57.46,16.48 L59.44,16.48 C59.17,17.92 57.82,19.216 55.678,19.216 C52.852,19.216 51.484,17.092 51.484,14.806 C51.484,12.286 52.978,10.396 55.624,10.396 C57.802,10.396 59.512,12.034 59.512,14.176 C59.512,14.464 59.512,14.86 59.422,15.4 Z M55.57,12.034 C54.418,12.034 53.5,12.7 53.5,13.942 L57.604,13.942 C57.604,12.772 56.758,12.034 55.57,12.034 Z M61.636,19 L63.598,19 L63.598,6.4 L61.636,6.4 L61.636,19 Z M66.226,19 L68.188,19 L68.188,6.4 L66.226,6.4 L66.226,19 Z M74.596,19.216 C71.932,19.216 70.186,17.182 70.186,14.806 C70.186,12.43 71.932,10.396 74.596,10.396 C77.296,10.396 79.042,12.43 79.042,14.806 C79.042,17.182 77.296,19.216 74.596,19.216 Z M74.596,17.47 C76.108,17.47 77.08,16.246 77.08,14.806 C77.08,13.366 76.108,12.142 74.596,12.142 C73.12,12.142 72.148,13.366 72.148,14.806 C72.148,16.246 73.12,17.47 74.596,17.47 Z M85.684,17.272 C85.486,17.308 85,17.344 84.694,17.344 C83.92,17.344 83.47,17.164 83.47,15.706 L83.47,12.25 L85.396,12.25 L85.396,10.612 L83.47,10.612 L83.47,8.074 L81.508,8.074 L81.508,10.612 L80.086,10.612 L80.086,12.25 L81.508,12.25 L81.508,16.156 C81.508,18.982 83.272,19.108 84.226,19.108 C84.802,19.108 85.378,19.054 85.684,19 L85.684,17.272 Z M94.702,15.4 L88.762,15.4 C88.78,16.606 89.374,17.578 90.958,17.578 C92.074,17.578 92.488,17.074 92.74,16.48 L94.72,16.48 C94.45,17.92 93.1,19.216 90.958,19.216 C88.132,19.216 86.764,17.092 86.764,14.806 C86.764,12.286 88.258,10.396 90.904,10.396 C93.082,10.396 94.792,12.034 94.792,14.176 C94.792,14.464 94.792,14.86 94.702,15.4 Z M90.85,12.034 C89.698,12.034 88.78,12.7 88.78,13.942 L92.884,13.942 C92.884,12.772 92.038,12.034 90.85,12.034 Z M102.244,10.63 C102.028,10.54 101.776,10.504 101.47,10.504 C100.354,10.504 99.256,11.188 98.878,11.962 L98.878,10.612 L96.916,10.612 L96.916,19 L98.878,19 L98.878,15.382 C98.878,13.294 99.796,12.34 101.47,12.34 C101.776,12.34 101.938,12.358 102.244,12.43 L102.244,10.63 Z M107.5,19.216 C104.836,19.216 103.09,17.182 103.09,14.806 C103.09,12.43 104.836,10.396 107.5,10.396 C110.2,10.396 111.946,12.43 111.946,14.806 C111.946,17.182 110.2,19.216 107.5,19.216 Z M107.5,17.47 C109.012,17.47 109.984,16.246 109.984,14.806 C109.984,13.366 109.012,12.142 107.5,12.142 C106.024,12.142 105.052,13.366 105.052,14.806 C105.052,16.246 106.024,17.47 107.5,17.47 Z M113.71,17.668 C113.71,18.46 114.358,19.108 115.15,19.108 C115.96,19.108 116.608,18.46 116.608,17.668 C116.608,16.858 115.96,16.21 115.15,16.21 C114.358,16.21 113.71,16.858 113.71,17.668 Z M119.398,19 L121.36,19 L121.36,10.612 L119.398,10.612 L119.398,19 Z M118.93,7.552 C118.93,8.344 119.578,8.992 120.37,8.992 C121.18,8.992 121.828,8.344 121.828,7.552 C121.828,6.742 121.18,6.094 120.37,6.094 C119.578,6.094 118.93,6.742 118.93,7.552 Z M128.164,19.216 C125.5,19.216 123.754,17.182 123.754,14.806 C123.754,12.43 125.5,10.396 128.164,10.396 C130.864,10.396 132.61,12.43 132.61,14.806 C132.61,17.182 130.864,19.216 128.164,19.216 Z M128.164,17.47 C129.676,17.47 130.648,16.246 130.648,14.806 C130.648,13.366 129.676,12.142 128.164,12.142 C126.688,12.142 125.716,13.366 125.716,14.806 C125.716,16.246 126.688,17.47 128.164,17.47 Z" id="Bellotero.io"></path>
        </g>
    </g>
</svg>